<?xml version="1.0" encoding="utf-8"?>
<!-- Generator: Adobe Illustrator 16.0.3, SVG Export Plug-In . SVG Version: 6.00 Build 0)  -->
<!DOCTYPE svg PUBLIC "-//W3C//DTD SVG 1.1//EN" "http://www.w3.org/Graphics/SVG/1.1/DTD/svg11.dtd">
<svg version="1.1" id="Layer_1" xmlns="http://www.w3.org/2000/svg" xmlns:xlink="http://www.w3.org/1999/xlink" x="0px" y="0px"
	 width="595.281px" height="841.891px" viewBox="0 0 595.281 841.891" enable-background="new 0 0 595.281 841.891"
	 xml:space="preserve">
<g id="Layer_x0020_1">
	<g id="_921457168">
		<path fill="#B0BEC5" d="M464.632,212.901L337.566,83.292c-22.014-22.454-57.758-22.454-79.771,0l-126.63,129.386
			c-7.411,7.559-7.411,19.563,0,27.122l38.359,39.127l25.5,24.232c7.628,7.114,19.18,7.114,26.808,0l51.219-48.242
			c14.167-13.338,35.744-13.338,49.693,0l51.219,48.242c7.629,7.114,19.18,7.114,26.809,0l25.501-24.232l38.359-38.904
			C471.825,232.686,471.825,220.46,464.632,212.901z"/>
		<path fill="#455A64" d="M58.804,367.853l198.991,202.973c22.013,22.452,57.757,22.452,79.771,0l198.991-202.973
			c34.437-35.125,10.244-45.574-15.039-70.029L490.35,267.59c-7.409-7.336-19.18-7.113-26.808,0l-51.218,48.242
			c-14.169,13.339-35.744,13.339-49.694,0l-51.219-48.242c-7.575-7.113-19.233-7.113-26.809,0l-51.219,48.242
			c-14.167,13.339-35.744,13.339-49.693,0l-51.219-48.242c-7.576-7.113-19.233-7.113-26.809,0l-28.77,27.123
			C50.522,319.612,22.842,330.949,58.804,367.853z"/>
	</g>
</g>
</svg>
